<svg width="15" height="9" viewBox="0 0 15 9" fill="none" xmlns="http://www.w3.org/2000/svg">
<path d="M7.45151 8.27588L13.9572 1.66633C14.0658 1.55605 14.1278 1.40819 14.1303 1.25343C14.1328 1.09867 14.0757 0.948883 13.9707 0.83513L13.9636 0.827785C13.9127 0.772452 13.8511 0.728049 13.7825 0.697276C13.714 0.666503 13.6398 0.650004 13.5647 0.648783C13.4895 0.647562 13.4149 0.661645 13.3453 0.690173C13.2758 0.718702 13.2128 0.76108 13.1601 0.814731L7.03421 7.03884L1.11612 0.619071C1.06524 0.563738 1.00363 0.519335 0.935047 0.488563C0.866463 0.45779 0.792336 0.441291 0.717174 0.44007C0.642013 0.438849 0.567389 0.452931 0.497842 0.48146C0.428294 0.509989 0.365277 0.552367 0.312625 0.606018L0.305279 0.613129C0.196674 0.723412 0.134686 0.871266 0.132171 1.02603C0.129657 1.18079 0.18681 1.33058 0.291776 1.44433L6.57935 8.26171C6.63465 8.32166 6.70154 8.36977 6.77598 8.4031C6.85042 8.43644 6.93085 8.45431 7.0124 8.45563C7.09395 8.45696 7.17492 8.44171 7.2504 8.41081C7.32588 8.37991 7.3943 8.33401 7.45151 8.27588Z" fill="#DEE2E6"/>
</svg>
