<svg width="16" height="17" viewBox="0 0 16 17" fill="none" xmlns="http://www.w3.org/2000/svg">
<path d="M8.20008 0.700012C6.1314 0.700012 4.14744 1.5218 2.68465 2.98458C1.22187 4.44736 0.400085 6.43132 0.400085 8.50001C0.400085 10.5687 1.22187 12.5527 2.68465 14.0154C4.14744 15.4782 6.1314 16.3 8.20008 16.3C9.81333 16.3 11.5076 15.814 12.7323 15.0003C12.798 14.9566 12.8544 14.9005 12.8983 14.8351C12.9423 14.7696 12.9729 14.6962 12.9885 14.6189C13.0041 14.5416 13.0042 14.4621 12.9891 14.3847C12.9739 14.3074 12.9436 14.2338 12.9 14.1681C12.8563 14.1025 12.8002 14.0461 12.7348 14.0021C12.6693 13.9582 12.5959 13.9276 12.5186 13.912C12.4413 13.8964 12.3618 13.8962 12.2844 13.9114C12.2071 13.9266 12.1335 13.9569 12.0678 14.0005C11.0501 14.6785 9.56583 15.1 8.20008 15.1C6.89473 15.1 5.61869 14.7129 4.53332 13.9877C3.44796 13.2625 2.60202 12.2317 2.10248 11.0257C1.60294 9.81973 1.47224 8.49269 1.7269 7.21242C1.98156 5.93214 2.61015 4.75613 3.53318 3.83311C4.45621 2.91008 5.63221 2.28149 6.91249 2.02683C8.19276 1.77217 9.5198 1.90287 10.7258 2.40241C11.9318 2.90195 12.9626 3.74788 13.6878 4.83325C14.413 5.91861 14.8001 7.19466 14.8001 8.50001C14.8001 10.4838 13.9841 10.9 13.3001 10.9C12.6161 10.9 11.8001 10.4838 11.8001 8.50001V5.50001C11.8001 5.34088 11.7369 5.18827 11.6243 5.07575C11.5118 4.96323 11.3592 4.90001 11.2001 4.90001C11.041 4.90001 10.8883 4.96323 10.7758 5.07575C10.6633 5.18827 10.6001 5.34088 10.6001 5.50001V5.81951C10.0616 5.33676 9.39029 5.02736 8.67349 4.93162C7.9567 4.83588 7.22768 4.95823 6.58141 5.28275C5.93515 5.60726 5.4016 6.11889 5.05027 6.75098C4.69894 7.38307 4.54613 8.10632 4.61173 8.8265C4.67733 9.54669 4.95831 10.2304 5.41806 10.7886C5.87781 11.3468 6.49502 11.7536 7.18929 11.956C7.88355 12.1584 8.62268 12.1471 9.31038 11.9234C9.99808 11.6997 10.6025 11.2741 11.0448 10.702C11.4948 11.602 12.2711 12.1 13.3001 12.1C14.9906 12.1 16.0001 10.7545 16.0001 8.50001C15.9979 6.43199 15.1754 4.4493 13.7131 2.98699C12.2508 1.52468 10.2681 0.702196 8.20008 0.700012ZM8.20008 10.9C7.72541 10.9 7.26139 10.7593 6.86672 10.4955C6.47204 10.2318 6.16442 9.85699 5.98277 9.41845C5.80112 8.97991 5.7536 8.49735 5.8462 8.0318C5.9388 7.56624 6.16738 7.1386 6.50303 6.80296C6.83867 6.46731 7.26631 6.23873 7.73187 6.14613C8.19742 6.05352 8.67998 6.10105 9.11852 6.2827C9.55707 6.46435 9.9319 6.77197 10.1956 7.16664C10.4593 7.56132 10.6001 8.02534 10.6001 8.50001C10.6001 9.13653 10.3472 9.74698 9.89714 10.1971C9.44705 10.6472 8.8366 10.9 8.20008 10.9Z" fill="#DEE2E6"/>
</svg>
