<svg width="13" height="13" viewBox="0 0 13 13" fill="none" xmlns="http://www.w3.org/2000/svg">
<path d="M4.5 0.62501H1.5C1.26794 0.62501 1.04538 0.717197 0.881282 0.881292C0.717187 1.04539 0.625 1.26795 0.625 1.50001V11.5C0.625 11.7321 0.717187 11.9546 0.881282 12.1187C1.04538 12.2828 1.26794 12.375 1.5 12.375H4.5C4.61491 12.375 4.72869 12.3524 4.83485 12.3084C4.94101 12.2644 5.03747 12.2 5.11872 12.1187C5.19997 12.0375 5.26442 11.941 5.30839 11.8349C5.35237 11.7287 5.375 11.6149 5.375 11.5V1.50001C5.375 1.3851 5.35237 1.27132 5.30839 1.16516C5.26442 1.059 5.19997 0.962543 5.11872 0.881292C5.03747 0.800041 4.94101 0.735588 4.83485 0.691616C4.72869 0.647643 4.61491 0.62501 4.5 0.62501ZM1.375 3.37501H4.625V9.62501H1.375V3.37501ZM1.5 1.37501H4.5C4.53315 1.37501 4.56495 1.38818 4.58839 1.41162C4.61183 1.43506 4.625 1.46686 4.625 1.50001V2.62501H1.375V1.50001C1.375 1.46686 1.38817 1.43506 1.41161 1.41162C1.43505 1.38818 1.46685 1.37501 1.5 1.37501ZM4.5 11.625H1.5C1.46685 11.625 1.43505 11.6118 1.41161 11.5884C1.38817 11.565 1.375 11.5332 1.375 11.5V10.375H4.625V11.5C4.625 11.5332 4.61183 11.565 4.58839 11.5884C4.56495 11.6118 4.53315 11.625 4.5 11.625ZM12.3562 10.6875L10.2819 0.82251C10.2585 0.709576 10.213 0.602385 10.148 0.507102C10.083 0.411818 9.9998 0.330322 9.90321 0.2673C9.80662 0.204279 9.69852 0.160976 9.58513 0.139882C9.47174 0.118787 9.3553 0.120318 9.2425 0.144385L6.31688 0.773135C6.09046 0.822905 5.89279 0.959948 5.76678 1.15453C5.64076 1.34911 5.59655 1.58554 5.64375 1.81251L7.71813 11.6756C7.74172 11.789 7.78757 11.8965 7.85301 11.992C7.91845 12.0874 8.00219 12.169 8.09937 12.2319C8.24003 12.3239 8.40442 12.373 8.5725 12.3731C8.63555 12.3734 8.69844 12.3667 8.76 12.3531L11.6856 11.725C11.9112 11.6747 12.1079 11.5377 12.2334 11.3436C12.3588 11.1495 12.403 10.9139 12.3562 10.6875ZM7.18062 5.48001L10.3512 4.79876L11.2338 8.99626L8.0625 9.67564L7.18062 5.48001ZM6.76625 3.50751L9.9375 2.82439L10.1969 4.06251L7.02625 4.74376L6.76625 3.50751ZM6.475 1.50751L9.4 0.879385C9.40873 0.878464 9.41752 0.878464 9.42625 0.879385C9.44962 0.87945 9.47244 0.886407 9.49187 0.899385C9.50623 0.908526 9.51857 0.920503 9.52814 0.934582C9.5377 0.948661 9.54429 0.964545 9.5475 0.98126L9.78187 2.09501L6.61187 2.77126L6.37813 1.66001C6.37082 1.62679 6.37689 1.59204 6.39502 1.56326C6.41315 1.53449 6.44189 1.51401 6.475 1.50626V1.50751ZM11.5256 10.995L8.6 11.625C8.58434 11.6285 8.56813 11.6288 8.55235 11.6259C8.53657 11.623 8.52153 11.6169 8.50813 11.6081C8.49377 11.599 8.48143 11.587 8.47186 11.5729C8.4623 11.5589 8.45571 11.543 8.4525 11.5263L8.21813 10.4125L11.3881 9.73126L11.625 10.8394C11.6287 10.8561 11.629 10.8733 11.626 10.8901C11.623 10.9069 11.6167 10.9229 11.6074 10.9373C11.5982 10.9516 11.5862 10.964 11.5722 10.9737C11.5581 10.9834 11.5423 10.9902 11.5256 10.9938V10.995Z" fill="#0D6EFD"/>
</svg>
