<svg width="100" height="82" viewBox="0 0 100 82" fill="none" xmlns="http://www.w3.org/2000/svg">
<path d="M6.25 12.175C11.7812 9.86249 19.7125 7.36874 27.425 6.59374C35.7375 5.75624 42.7875 6.98749 46.875 11.2937V72.2062C41.0312 68.8937 33.625 68.4375 26.7938 69.125C19.4188 69.875 11.9812 72.0062 6.25 74.1937V12.175ZM53.125 11.2937C57.2125 6.98749 64.2625 5.75624 72.575 6.59374C80.2875 7.36874 88.2188 9.86249 93.75 12.175V74.1937C88.0125 72.0062 80.5813 69.8687 73.2063 69.1312C66.3688 68.4375 58.9688 68.8875 53.125 72.2062V11.2937ZM50 5.64374C43.8438 0.349987 34.9188 -0.437513 26.7938 0.374987C17.3313 1.33124 7.78125 4.57499 1.83125 7.28124C1.28531 7.52954 0.822346 7.92969 0.497631 8.43394C0.172917 8.93819 0.000166071 9.52523 0 10.125L0 78.875C0.000144762 79.3979 0.131482 79.9123 0.381982 80.3713C0.632482 80.8302 0.994136 81.219 1.43382 81.502C1.8735 81.7849 2.37715 81.953 2.89865 81.9909C3.42014 82.0288 3.9428 81.9352 4.41875 81.7187C9.93125 79.2187 18.8125 76.2125 27.4188 75.3437C36.225 74.4562 43.6063 75.8875 47.5625 80.825C47.8553 81.19 48.2264 81.4845 48.6482 81.6869C49.0701 81.8893 49.5321 81.9944 50 81.9944C50.4679 81.9944 50.9299 81.8893 51.3518 81.6869C51.7736 81.4845 52.1447 81.19 52.4375 80.825C56.3938 75.8875 63.775 74.4562 72.575 75.3437C81.1875 76.2125 90.075 79.2187 95.5813 81.7187C96.0572 81.9352 96.5799 82.0288 97.1014 81.9909C97.6228 81.953 98.1265 81.7849 98.5662 81.502C99.0059 81.219 99.3675 80.8302 99.618 80.3713C99.8685 79.9123 99.9999 79.3979 100 78.875V10.125C99.9998 9.52523 99.8271 8.93819 99.5024 8.43394C99.1777 7.92969 98.7147 7.52954 98.1687 7.28124C92.2188 4.57499 82.6688 1.33124 73.2063 0.374987C65.0813 -0.443763 56.1562 0.349987 50 5.64374Z" fill="#A7ACB1"/>
</svg>
