<svg width="101" height="101" viewBox="0 0 101 101" fill="none" xmlns="http://www.w3.org/2000/svg">
<g clip-path="url(#clip0_16_175)">
<path d="M53.8854 6.86875C52.8143 6.78967 51.7407 6.75006 50.6667 6.75V0.5C51.895 0.500599 53.1229 0.546463 54.3479 0.6375L53.8854 6.86875ZM66.4104 9.68125C64.407 8.90809 62.3493 8.28348 60.2542 7.8125L61.6229 1.7125C64.0229 2.25 66.3687 2.9625 68.6604 3.85L66.4104 9.68125ZM74.9729 14.1187C74.0793 13.5228 73.1641 12.9599 72.2292 12.4313L75.3104 6.99375C77.4476 8.20412 79.4927 9.57031 81.4292 11.0813L77.5854 16.0125C76.7381 15.3515 75.8666 14.7219 74.9729 14.125V14.1187ZM86.4354 25.3063C85.199 23.55 83.8348 21.8872 82.3542 20.3313L86.8792 16.0188C88.5708 17.8062 90.1271 19.7021 91.5479 21.7062L86.4354 25.3063ZM91.0854 33.7563C90.6756 32.7652 90.2294 31.7895 89.7479 30.8313L95.3292 28.0187C96.4324 30.2133 97.3725 32.4861 98.1417 34.8188L92.2042 36.775C91.8684 35.7554 91.4952 34.7484 91.0854 33.7563ZM94.3979 49.425C94.3472 47.2771 94.1383 45.1359 93.7729 43.0187L99.9292 41.9562C100.346 44.3729 100.587 46.8104 100.654 49.2687L94.3979 49.425ZM93.5792 59.0375C93.7875 57.9792 93.9562 56.9167 94.0854 55.85L100.292 56.6188C99.9905 59.057 99.51 61.4698 98.8542 63.8375L92.8292 62.1687C93.1167 61.1396 93.3667 60.0958 93.5792 59.0375ZM87.6292 73.9062C88.7792 72.0896 89.7917 70.1979 90.6667 68.2312L96.3792 70.7625C95.3792 73.0125 94.2229 75.175 92.9104 77.25L87.6292 73.9062ZM81.6042 81.4375C82.3667 80.675 83.0958 79.8875 83.7917 79.075L88.5292 83.1562C87.7272 84.0867 86.8912 84.9873 86.0229 85.8562L81.6042 81.4375Z" fill="#A7ACB1"/>
<path d="M50.6666 6.75C43.4721 6.75052 36.3888 8.52529 30.044 11.9171C23.6992 15.3089 18.2888 20.2131 14.292 26.1953C10.2952 32.1775 7.83536 39.053 7.13036 46.2129C6.42536 53.3728 7.49697 60.596 10.2503 67.2428C13.0035 73.8896 17.3535 79.7549 22.9149 84.3191C28.4763 88.8832 35.0775 92.0055 42.1337 93.4092C49.19 94.8129 56.4835 94.4548 63.3683 92.3666C70.2531 90.2784 76.5166 86.5245 81.6041 81.4375L86.0229 85.8562C80.2087 91.6736 73.0495 95.9671 65.1794 98.3562C57.3093 100.745 48.9715 101.156 40.9045 99.553C32.8376 97.9496 25.2908 94.3812 18.9326 89.1639C12.5744 83.9467 7.60124 77.2417 4.45374 69.6431C1.30623 62.0444 0.0815635 53.7867 0.888237 45.6017C1.69491 37.4166 4.50802 29.5569 9.07832 22.7189C13.6486 15.8809 19.835 10.2757 27.0893 6.40002C34.3436 2.52434 42.4419 0.49782 50.6666 0.500002V6.75Z" fill="#A7ACB1"/>
<path d="M47.5417 19.25C48.3705 19.25 49.1653 19.5792 49.7514 20.1653C50.3374 20.7513 50.6667 21.5462 50.6667 22.375V54.9375L70.9667 66.5375C71.6654 66.959 72.1715 67.6371 72.3769 68.4268C72.5822 69.2165 72.4706 70.0553 72.0657 70.7637C71.6609 71.4722 70.995 71.9943 70.2103 72.2183C69.4257 72.4423 68.5845 72.3505 67.8667 71.9625L45.9917 59.4625C45.5134 59.1893 45.1158 58.7945 44.8392 58.3182C44.5626 57.8418 44.4168 57.3008 44.4167 56.75V22.375C44.4167 21.5462 44.7459 20.7513 45.3319 20.1653C45.918 19.5792 46.7129 19.25 47.5417 19.25Z" fill="#A7ACB1"/>
</g>
<defs>
<clipPath id="clip0_16_175">
<rect width="100" height="100" fill="white" transform="translate(0.666656 0.5)"/>
</clipPath>
</defs>
</svg>
