<svg width="25" height="24" viewBox="0 0 25 24" fill="none" xmlns="http://www.w3.org/2000/svg">
<g clip-path="url(#clip0_97_4528)">
<path d="M8.29287 8.60571V12.5657M10.2746 10.5857H6.31287" stroke="#0D6EFD" stroke-width="1.71429" stroke-linecap="round" stroke-linejoin="round"/>
<path d="M2.90314 8.93486L2.19686 15.2949C2.09546 16.208 2.31856 17.1277 2.82709 17.893C3.33561 18.6582 4.09714 19.2201 4.97829 19.4803C5.85945 19.7405 6.80406 19.6824 7.64668 19.3161C8.48931 18.9499 9.17623 18.2989 9.58714 17.4772L10.2043 16.2429H15.2957L15.9129 17.4772C16.3244 18.2977 17.0114 18.9474 17.8535 19.3128C18.6956 19.6781 19.6394 19.7358 20.5197 19.4758C21.4001 19.2158 22.1611 18.6546 22.6696 17.8903C23.178 17.126 23.4017 16.2073 23.3014 15.2949L22.5969 8.93486C22.4572 7.67678 21.8585 6.51439 20.9153 5.67019C19.9721 4.826 18.7507 4.3593 17.4849 4.35944H8.01514C6.74933 4.3593 5.52793 4.826 4.58473 5.67019C3.64153 6.51439 3.0428 7.67678 2.90314 8.93486Z" stroke="#0D6EFD" stroke-width="1.71429" stroke-linejoin="round"/>
<path d="M18.6917 9.45258C18.5838 9.44572 18.4826 9.39803 18.4087 9.31922C18.3347 9.2404 18.2936 9.13638 18.2936 9.02829C18.2936 8.92021 18.3347 8.81618 18.4087 8.73737C18.4826 8.65855 18.5838 8.61087 18.6917 8.60401M18.6917 9.45258C18.7497 9.45627 18.8078 9.44803 18.8625 9.42837C18.9172 9.40872 18.9673 9.37807 19.0096 9.33831C19.052 9.29855 19.0858 9.25052 19.1088 9.1972C19.1319 9.14388 19.1438 9.0864 19.1438 9.02829C19.1438 8.97019 19.1319 8.9127 19.1088 8.85938C19.0858 8.80606 19.052 8.75804 19.0096 8.71828C18.9673 8.67852 18.9172 8.64786 18.8625 8.62821C18.8078 8.60856 18.7497 8.60032 18.6917 8.60401M15.7209 11.5749C15.7277 11.467 15.7754 11.3658 15.8542 11.2918C15.933 11.2179 16.0371 11.1767 16.1451 11.1767C16.2532 11.1767 16.3573 11.2179 16.4361 11.2918C16.5149 11.3658 16.5626 11.467 16.5694 11.5749M15.7209 11.5749C15.7172 11.6328 15.7254 11.691 15.7451 11.7457C15.7647 11.8003 15.7954 11.8504 15.8351 11.8928C15.8749 11.9351 15.9229 11.9689 15.9762 11.992C16.0296 12.0151 16.087 12.027 16.1451 12.027C16.2032 12.027 16.2607 12.0151 16.3141 11.992C16.3674 11.9689 16.4154 11.9351 16.4552 11.8928C16.4949 11.8504 16.5256 11.8003 16.5452 11.7457C16.5649 11.691 16.5731 11.6328 16.5694 11.5749" stroke="#0D6EFD" stroke-width="1.71429" stroke-linecap="round" stroke-linejoin="round"/>
</g>
<defs>
<clipPath id="clip0_97_4528">
<rect width="24" height="24" fill="white" transform="translate(0.75)"/>
</clipPath>
</defs>
</svg>
