<svg width="101" height="101" viewBox="0 0 101 101" fill="none" xmlns="http://www.w3.org/2000/svg">
<path d="M25.3334 67.8813C26.2584 78.3 34.7896 85.6938 47.7771 86.65V94.25H54.2959V86.65C68.4834 85.5312 77.2834 77.6625 77.2834 66.025C77.2834 56.0875 71.3646 50.3375 58.8084 47.1L54.2959 45.9313V22.1687C61.3084 22.8563 66.0396 26.6313 67.2334 32.2688H76.4209C75.3834 22.2688 66.7959 15.0938 54.2959 14.3V6.75H47.7771V14.4563C35.6584 15.8938 27.3396 23.6562 27.3396 34.1812C27.3396 43.2687 33.3771 49.7 43.9709 52.4125L47.7834 53.425V78.6187C40.6021 77.5562 35.6584 73.6188 34.4646 67.8813H25.3334ZM46.5271 43.9062C40.0084 42.2625 36.5271 38.75 36.5271 33.8062C36.5271 27.9062 40.9271 23.55 47.7771 22.3812V44.225L46.5271 43.9062ZM56.4709 55.6063C64.5146 57.625 68.0459 60.975 68.0459 66.6625C68.0459 73.5188 62.8834 78.0875 54.2959 78.7812V55.0625L56.4709 55.6063Z" fill="#A7ACB1"/>
</svg>
