<svg width="18" height="22" viewBox="0 0 18 22" fill="none" xmlns="http://www.w3.org/2000/svg">
<path d="M2.41957 22C1.85653 22 1.38679 21.8118 1.01035 21.4353C0.633902 21.0589 0.445273 20.5891 0.444458 20.0261V1.97389C0.444458 1.41167 0.633087 0.942333 1.01035 0.565889C1.38761 0.189444 1.85735 0.000814815 2.41957 0H12.0556L17.5556 5.5V20.0261C17.5556 20.5883 17.3673 21.0581 16.9909 21.4353C16.6145 21.8126 16.1443 22.0008 15.5805 22H2.41957ZM11.4445 6.11111V1.22222H2.41957C2.23135 1.22222 2.05861 1.30044 1.90135 1.45689C1.74409 1.61333 1.66587 1.78567 1.66668 1.97389V20.0261C1.66668 20.2135 1.7449 20.3859 1.90135 20.5431C2.05779 20.7004 2.23012 20.7786 2.41835 20.7778H15.5817C15.7691 20.7778 15.9414 20.6996 16.0987 20.5431C16.2559 20.3867 16.3342 20.2139 16.3333 20.0249V6.11111H11.4445Z" fill="#212529"/>
</svg>
