<svg width="28" height="28" viewBox="0 0 28 28" fill="none" xmlns="http://www.w3.org/2000/svg">
<path d="M12.6667 20.6666H15.3334V12.6666H12.6667V20.6666ZM14 9.99996C14.3778 9.99996 14.6947 9.87196 14.9507 9.61596C15.2067 9.35996 15.3342 9.04351 15.3334 8.66663C15.3325 8.28974 15.2045 7.97329 14.9494 7.71729C14.6942 7.46129 14.3778 7.33329 14 7.33329C13.6222 7.33329 13.3058 7.46129 13.0507 7.71729C12.7956 7.97329 12.6676 8.28974 12.6667 8.66663C12.6658 9.04351 12.7938 9.3604 13.0507 9.61729C13.3076 9.87418 13.624 10.0017 14 9.99996ZM14 27.3333C12.1556 27.3333 10.4222 26.9831 8.80002 26.2826C7.1778 25.5822 5.76669 24.6324 4.56669 23.4333C3.36669 22.2342 2.41691 20.8231 1.71736 19.2C1.0178 17.5768 0.667578 15.8435 0.666689 14C0.6658 12.1564 1.01602 10.4231 1.71736 8.79996C2.41869 7.17685 3.36847 5.76574 4.56669 4.56663C5.76491 3.36751 7.17602 2.41774 8.80002 1.71729C10.424 1.01685 12.1574 0.666626 14 0.666626C15.8427 0.666626 17.576 1.01685 19.2 1.71729C20.824 2.41774 22.2351 3.36751 23.4334 4.56663C24.6316 5.76574 25.5818 7.17685 26.284 8.79996C26.9862 10.4231 27.336 12.1564 27.3334 14C27.3307 15.8435 26.9805 17.5768 26.2827 19.2C25.5849 20.8231 24.6351 22.2342 23.4334 23.4333C22.2316 24.6324 20.8205 25.5826 19.2 26.284C17.5796 26.9853 15.8462 27.3351 14 27.3333ZM14 24.6666C16.9778 24.6666 19.5 23.6333 21.5667 21.5666C23.6334 19.5 24.6667 16.9777 24.6667 14C24.6667 11.0222 23.6334 8.49996 21.5667 6.43329C19.5 4.36663 16.9778 3.33329 14 3.33329C11.0222 3.33329 8.50002 4.36663 6.43336 6.43329C4.36669 8.49996 3.33336 11.0222 3.33336 14C3.33336 16.9777 4.36669 19.5 6.43336 21.5666C8.50002 23.6333 11.0222 24.6666 14 24.6666Z" fill="#212529"/>
</svg>
