<svg width="18" height="20" viewBox="0 0 18 20" fill="none" xmlns="http://www.w3.org/2000/svg">
<path d="M17.0925 9.99692C16.657 9.33026 16.0646 8.78067 15.3672 8.3964C14.6698 8.01212 13.8887 7.80491 13.0925 7.79294C13.0805 7.4483 13.0367 7.10551 12.9615 6.76895C12.9345 6.63789 12.8814 6.51359 12.8054 6.40342C12.7295 6.29325 12.6322 6.19944 12.5193 6.12756C12.4064 6.05568 12.2803 6.00719 12.1483 5.98495C12.0163 5.96272 11.8812 5.9672 11.751 5.99812C11.6208 6.02905 11.4982 6.0858 11.3903 6.165C11.2824 6.2442 11.1916 6.34424 11.1231 6.4592C11.0546 6.57417 11.0099 6.70171 10.9916 6.83427C10.9733 6.96684 10.9817 7.10173 11.0165 7.23095C11.0609 7.42858 11.0884 7.62964 11.0985 7.83194C9.98302 7.97006 8.889 8.24617 7.84155 8.65394C7.86455 7.44995 7.91855 6.24696 8.03855 5.04697L8.07655 4.66497C9.24815 4.50504 10.4104 4.28306 11.5585 3.99998L11.6785 3.96998C11.8103 3.94274 11.9353 3.88918 12.0459 3.8125C12.1565 3.73582 12.2504 3.63761 12.3222 3.52374C12.3939 3.40988 12.4419 3.2827 12.4634 3.14984C12.4848 3.01697 12.4792 2.88115 12.4468 2.75051C12.4145 2.61987 12.3561 2.49709 12.2752 2.38954C12.1943 2.282 12.0926 2.19188 11.976 2.12461C11.8594 2.05733 11.7305 2.01427 11.5969 1.99802C11.4633 1.98176 11.3278 1.99264 11.1985 2.03L11.0765 2.06C10.1545 2.28999 9.22054 2.46399 8.28255 2.60999L8.43355 1.10001C8.46007 0.836117 8.38067 0.572502 8.21283 0.367151C8.12972 0.265472 8.0274 0.181158 7.91171 0.119023C7.79602 0.0568873 7.66922 0.0181477 7.53856 0.00501558C7.27467 -0.0215058 7.01105 0.0578879 6.8057 0.225731C6.60035 0.393575 6.47009 0.636119 6.44356 0.900007L6.24757 2.85999C5.31358 2.94299 4.37758 2.99999 3.43859 2.99999C3.17338 2.99999 2.91903 3.10534 2.73149 3.29288C2.54396 3.48041 2.4386 3.73476 2.4386 3.99998C2.4386 4.26519 2.54396 4.51954 2.73149 4.70708C2.91903 4.89461 3.17338 4.99997 3.43859 4.99997C4.30858 4.99997 5.17858 4.95397 6.04557 4.88597C5.89899 6.44755 5.83123 8.01552 5.84257 9.58393C5.70857 9.65693 5.57257 9.72593 5.43957 9.80392C4.75946 10.1935 4.10813 10.6313 3.49059 11.1139L3.46859 11.1319C2.46535 11.9055 1.57391 12.8141 0.819617 13.8319C0.469701 14.3159 0.271988 14.8932 0.251729 15.49C0.231471 16.0869 0.389587 16.6763 0.705882 17.1829C1.02218 17.6895 1.4823 18.0903 2.02747 18.3341C2.57264 18.578 3.17813 18.6538 3.76659 18.5518C4.75911 18.363 5.71622 18.0209 6.60356 17.5379C6.72707 17.732 6.91397 17.8773 7.13251 17.9493C7.35106 18.0212 7.58776 18.0152 7.80242 17.9324C8.01707 17.8496 8.19642 17.695 8.31002 17.4949C8.42361 17.2949 8.46443 17.0616 8.42555 16.8349C8.40055 16.6899 8.38955 16.5439 8.36755 16.3979C8.82946 16.041 9.26834 15.6552 9.68153 15.2429C10.4984 14.4288 11.2048 13.511 11.7825 12.5129C11.8055 12.4739 11.8245 12.4349 11.8475 12.3949C11.9655 12.1849 12.0775 11.9729 12.1795 11.7599C12.2325 11.6489 12.2815 11.5379 12.3305 11.4269C12.4522 11.1525 12.562 10.8729 12.6595 10.5889C12.6915 10.4929 12.7195 10.3979 12.7495 10.3019C12.7995 10.1329 12.8505 9.96492 12.8905 9.79793L12.8955 9.77992C13.3739 9.77305 13.847 9.8801 14.2758 10.0922C14.7046 10.3044 15.0767 10.6155 15.3615 10.9999C16.3805 12.7669 14.3985 15.9769 10.9445 18.1538C10.8334 18.2239 10.7372 18.3152 10.6614 18.4224C10.5856 18.5296 10.5316 18.6508 10.5026 18.7789C10.4736 18.907 10.4701 19.0395 10.4923 19.169C10.5145 19.2984 10.562 19.4222 10.632 19.5333C10.7021 19.6444 10.7933 19.7406 10.9006 19.8165C11.0078 19.8923 11.129 19.9463 11.257 19.9753C11.3851 20.0043 11.5177 20.0078 11.6472 19.9856C11.7766 19.9634 11.9004 19.9159 12.0115 19.8458C16.5105 17.0099 18.6955 12.7769 17.0925 9.99692ZM3.41659 16.5829C3.221 16.6145 3.02041 16.5877 2.84004 16.5057C2.65967 16.4237 2.50756 16.2902 2.40284 16.122C2.29812 15.9538 2.24545 15.7584 2.25145 15.5603C2.25746 15.3623 2.32188 15.1704 2.4366 15.0089C3.08992 14.133 3.86083 13.3513 4.72758 12.6859L4.75458 12.6649C5.1225 12.3817 5.5043 12.1171 5.89857 11.8719C5.95857 13.0669 6.07157 14.2579 6.22457 15.4459C5.36748 15.9963 4.41518 16.3819 3.41659 16.5829ZM10.7465 9.99992C10.6547 10.2652 10.5492 10.5255 10.4305 10.7799C10.3745 10.8999 10.3125 11.0189 10.2505 11.1379C10.1539 11.3232 10.0502 11.5079 9.93953 11.6919C9.85453 11.8319 9.76753 11.9709 9.67453 12.1099C9.26189 12.7271 8.79036 13.3028 8.26655 13.8289C8.19655 13.8989 8.12355 13.9619 8.05255 14.0289C7.94388 12.9642 7.87355 11.8969 7.84155 10.8269C8.77931 10.3959 9.76681 10.0825 10.7815 9.89392L10.7465 9.99992Z" fill="#0D6EFD"/>
</svg>
