<svg width="23" height="22" viewBox="0 0 23 22" fill="none" xmlns="http://www.w3.org/2000/svg">
<path d="M10.4 13.2H12.6C12.9117 13.2 13.1731 13.0944 13.3843 12.8832C13.5955 12.672 13.7007 12.4109 13.7 12.1C13.6993 11.7891 13.5937 11.528 13.3832 11.3168C13.1727 11.1056 12.9117 11 12.6 11H10.4C10.0883 11 9.82726 11.1056 9.61679 11.3168C9.40633 11.528 9.30073 11.7891 9.29999 12.1C9.29926 12.4109 9.40486 12.6724 9.61679 12.8843C9.82873 13.0962 10.0898 13.2015 10.4 13.2ZM10.4 9.89999H17C17.3117 9.89999 17.5731 9.79439 17.7843 9.58319C17.9955 9.37199 18.1007 9.11093 18.1 8.79999C18.0993 8.48906 17.9937 8.22799 17.7832 8.0168C17.5727 7.8056 17.3117 7.7 17 7.7H10.4C10.0883 7.7 9.82726 7.8056 9.61679 8.0168C9.40633 8.22799 9.30073 8.48906 9.29999 8.79999C9.29926 9.11093 9.40486 9.37236 9.61679 9.58429C9.82873 9.79623 10.0898 9.90146 10.4 9.89999ZM10.4 6.6H17C17.3117 6.6 17.5731 6.4944 17.7843 6.2832C17.9955 6.072 18.1007 5.81093 18.1 5.5C18.0993 5.18906 17.9937 4.928 17.7832 4.7168C17.5727 4.5056 17.3117 4.4 17 4.4H10.4C10.0883 4.4 9.82726 4.5056 9.61679 4.7168C9.40633 4.928 9.30073 5.18906 9.29999 5.5C9.29926 5.81093 9.40486 6.07236 9.61679 6.2843C9.82873 6.49623 10.0898 6.60146 10.4 6.6ZM7.1 17.6C6.495 17.6 5.97726 17.3848 5.5468 16.9543C5.11633 16.5238 4.90073 16.0057 4.9 15.4V2.2C4.9 1.595 5.1156 1.07727 5.5468 0.6468C5.978 0.216333 6.49573 0.000733333 7.1 0H20.3C20.905 0 21.4231 0.2156 21.8543 0.6468C22.2855 1.078 22.5007 1.59573 22.5 2.2V15.4C22.5 16.005 22.2847 16.5231 21.8543 16.9543C21.4238 17.3855 20.9057 17.6007 20.3 17.6H7.1ZM7.1 15.4H20.3V2.2H7.1V15.4ZM2.7 22C2.095 22 1.57727 21.7848 1.1468 21.3543C0.716333 20.9238 0.500733 20.4057 0.5 19.8V5.5C0.5 5.18833 0.6056 4.92726 0.8168 4.7168C1.028 4.50633 1.28907 4.40073 1.6 4.4C1.91093 4.39926 2.17237 4.50486 2.3843 4.7168C2.59623 4.92873 2.70147 5.1898 2.7 5.5V19.8H17C17.3117 19.8 17.5731 19.9056 17.7843 20.1168C17.9955 20.328 18.1007 20.5891 18.1 20.9C18.0993 21.2109 17.9937 21.4724 17.7832 21.6843C17.5727 21.8962 17.3117 22.0015 17 22H2.7Z" fill="#212529"/>
</svg>
