<svg width="13" height="14" viewBox="0 0 13 14" fill="none" xmlns="http://www.w3.org/2000/svg">
<path d="M11.6535 2.5535L13 1.207L12.293 0.5L10.9465 1.8465L10.4 1.3C10.3097 1.20518 10.2011 1.12969 10.0808 1.07811C9.96047 1.02652 9.83092 0.999925 9.7 0.999925C9.56908 0.999925 9.43953 1.02652 9.3192 1.07811C9.19887 1.12969 9.09027 1.20518 9 1.3L0 10.3V13.5H3.2L12.2 4.5C12.2948 4.40973 12.3703 4.30113 12.4219 4.1808C12.4735 4.06047 12.5001 3.93092 12.5001 3.8C12.5001 3.66908 12.4735 3.53953 12.4219 3.4192C12.3703 3.29887 12.2948 3.19027 12.2 3.1L11.6535 2.5535ZM2.8 12.5H1V10.7L9.7 2L11.5 3.8L2.8 12.5ZM2.5 5.293L6.293 1.5L7 2.207L3.207 6L2.5 5.293Z" fill="#DEE2E6"/>
</svg>
