<svg width="25" height="24" viewBox="0 0 25 24" fill="none" xmlns="http://www.w3.org/2000/svg">
<path d="M18.5 8C19.0304 8 19.5391 7.78929 19.9142 7.41421C20.2893 7.03914 20.5 6.53043 20.5 6C20.5 5.46957 20.2893 4.96086 19.9142 4.58579C19.5391 4.21071 19.0304 4 18.5 4C18.5 3.46957 18.2893 2.96086 17.9142 2.58579C17.5391 2.21071 17.0304 2 16.5 2C15.9696 2 15.4609 2.21071 15.0858 2.58579C14.7107 2.96086 14.5 3.46957 14.5 4C14.5 3.46957 14.2893 2.96086 13.9142 2.58579C13.5391 2.21071 13.0304 2 12.5 2C11.9696 2 11.4609 2.21071 11.0858 2.58579C10.7107 2.96086 10.5 3.46957 10.5 4C10.5 3.46957 10.2893 2.96086 9.91421 2.58579C9.53914 2.21071 9.03043 2 8.5 2C7.96957 2 7.46086 2.21071 7.08579 2.58579C6.71071 2.96086 6.5 3.46957 6.5 4C5.96957 4 5.46086 4.21071 5.08579 4.58579C4.71071 4.96086 4.5 5.46957 4.5 6C4.5 6.53043 4.71071 7.03914 5.08579 7.41421C5.46086 7.78929 5.96957 8 6.5 8M10.5 22L9.5 8M14.5 22L15.5 8" stroke="#0D6EFD" stroke-width="2" stroke-linecap="round" stroke-linejoin="round"/>
<path d="M20.5 8C21 8 21.4 8.4 21.3 9L18.7 21C18.6 21.5 18 22 17.5 22H7.5C6.9 22 6.4 21.6 6.3 21L3.7 9C3.6 8.4 4 8 4.5 8H20.5Z" stroke="#0D6EFD" stroke-width="2" stroke-linecap="round" stroke-linejoin="round"/>
</svg>
