<svg width="19" height="20" viewBox="0 0 19 20" fill="none" xmlns="http://www.w3.org/2000/svg">
<path d="M17.6801 8.19C16.9608 8.05985 16.2311 7.99624 15.5001 8C15.0801 8 14.6701 8 14.2601 8.08C13.7497 7.39888 13.0982 6.83605 12.3501 6.43C12.9927 5.72825 13.3494 4.81148 13.3501 3.86C13.3501 2.83626 12.9435 1.85446 12.2196 1.13057C11.4957 0.406677 10.5139 0 9.49013 0C8.4664 0 7.48459 0.406677 6.7607 1.13057C6.03681 1.85446 5.63013 2.83626 5.63013 3.86C5.63087 4.81148 5.98759 5.72825 6.63013 6.43C5.88653 6.83816 5.23606 7.39668 4.72013 8.07C4.33013 8 3.92013 8 3.50013 8C2.76856 8.00284 2.0388 8.07314 1.32013 8.21C1.08718 8.2526 0.876895 8.37649 0.726732 8.55961C0.57657 8.74274 0.496271 8.97321 0.500133 9.21V17.46C0.499895 17.6069 0.532028 17.7521 0.594249 17.8852C0.65647 18.0182 0.74725 18.136 0.860133 18.23C0.972304 18.3246 1.10391 18.3933 1.24563 18.4313C1.38734 18.4694 1.53568 18.4757 1.68013 18.45C2.27854 18.3197 2.8879 18.246 3.50013 18.23C5.43723 18.2279 7.3323 18.7947 8.95013 19.86L9.08013 19.91C9.21278 19.9676 9.35555 19.9982 9.50013 20C9.59558 19.9988 9.69018 19.9819 9.78013 19.95H9.85013L9.98013 19.9C11.6134 18.8073 13.5351 18.2259 15.5001 18.23C16.1111 18.2328 16.7204 18.2931 17.3201 18.41C17.4646 18.4357 17.6129 18.4294 17.7546 18.3913C17.8964 18.3533 18.028 18.2846 18.1401 18.19C18.253 18.096 18.3438 17.9782 18.406 17.8452C18.4682 17.7121 18.5004 17.5669 18.5001 17.42V9.17C18.4993 8.93664 18.4168 8.71092 18.2671 8.53195C18.1173 8.35297 17.9097 8.232 17.6801 8.19ZM9.50013 2C9.96858 2.03442 10.4067 2.2448 10.7264 2.58888C11.0461 2.93297 11.2238 3.38529 11.2238 3.855C11.2238 4.32471 11.0461 4.77703 10.7264 5.12112C10.4067 5.4652 9.96858 5.67558 9.50013 5.71C9.03169 5.67558 8.59361 5.4652 8.27387 5.12112C7.95414 4.77703 7.77642 4.32471 7.77642 3.855C7.77642 3.38529 7.95414 2.93297 8.27387 2.58888C8.59361 2.2448 9.03169 2.03442 9.50013 2ZM8.50013 17.33C6.93281 16.6055 5.2268 16.2302 3.50013 16.23C3.17013 16.23 2.84013 16.23 2.50013 16.28V10C3.3387 9.90619 4.18595 9.923 5.02013 10.05H5.13013C6.32173 10.269 7.46361 10.7027 8.50013 11.33V17.33ZM9.50013 9.6C9.05546 9.34348 8.59447 9.11633 8.12013 8.92H8.06013C7.73013 8.79 7.40013 8.66 7.06013 8.56C7.75445 8.00737 8.61281 7.70132 9.50013 7.69C10.3851 7.69561 11.2432 7.99455 11.9401 8.54C11.0912 8.80503 10.2732 9.1604 9.50013 9.6ZM16.5001 16.28C14.4468 16.0737 12.3756 16.4189 10.5001 17.28V11.28C11.5385 10.6688 12.6811 10.2552 13.8701 10.06H14.0701C14.8741 9.9348 15.691 9.91463 16.5001 10V16.28Z" fill="#161719"/>
</svg>
