<svg width="11" height="19" viewBox="0 0 11 19" fill="none" xmlns="http://www.w3.org/2000/svg">
<path d="M0.884761 0.776968C0.884777 0.666522 0.974315 0.576996 1.08476 0.576996H9.91479C10.0252 0.576996 10.1148 0.666539 10.1148 0.776996V7.657C10.1148 8.015 10.0188 8.34733 9.82679 8.654C9.63479 8.96066 9.37579 9.212 9.04979 9.408L5.82613 11.3501C5.74725 11.3976 5.71101 11.4928 5.73835 11.5808L6.38707 13.6674C6.41307 13.751 6.49047 13.808 6.57805 13.808H8.67394C8.86943 13.808 8.94881 14.0596 8.78873 14.1718L7.05828 15.3846C6.98661 15.4348 6.95592 15.5258 6.98254 15.6092L7.67517 17.7785C7.7347 17.965 7.51861 18.1171 7.36313 17.9982L5.62127 16.6659C5.54956 16.6111 5.45001 16.6111 5.37829 16.6659L3.63534 17.9985C3.47986 18.1173 3.26382 17.9652 3.32334 17.7788L4.01605 15.6091C4.04266 15.5258 4.01199 15.4348 3.94034 15.3845L2.2106 14.1718C2.05056 14.0595 2.12995 13.808 2.32542 13.808H4.42153C4.50911 13.808 4.58651 13.751 4.61251 13.6674L5.26058 11.5828C5.28822 11.4939 5.25087 11.3977 5.1705 11.3508L1.91079 9.446C1.58546 9.26266 1.33312 9.01133 1.15379 8.692C0.973789 8.37266 0.883789 8.028 0.883789 7.658L0.884761 0.776968ZM2.08479 1.577C1.97433 1.577 1.88479 1.66654 1.88479 1.777V7.657C1.88479 7.85033 1.93279 8.027 2.02879 8.187C2.12479 8.347 2.25612 8.47833 2.42279 8.581L4.69878 9.91285C4.83211 9.99087 4.99979 9.89471 4.99979 9.74023V1.777C4.99979 1.66654 4.91025 1.577 4.79979 1.577H2.08479ZM9.11479 1.777C9.11479 1.66654 9.02525 1.577 8.91479 1.577H6.19979C6.08933 1.577 5.99979 1.66654 5.99979 1.777V9.74023C5.99979 9.89471 6.16747 9.99087 6.3008 9.91285L8.57679 8.581C8.74346 8.47833 8.87479 8.347 8.97079 8.187C9.06679 8.027 9.11479 7.85033 9.11479 7.657V1.777Z" fill="#161719"/>
</svg>
