<svg width="12" height="13" viewBox="0 0 12 13" fill="none" xmlns="http://www.w3.org/2000/svg">
<path fill-rule="evenodd" clip-rule="evenodd" d="M7.59002 8.79736C6.69133 9.51543 5.5518 9.86213 4.40547 9.76625C3.25914 9.67038 2.19303 9.13921 1.42611 8.28184C0.659181 7.42446 0.249659 6.30597 0.28165 5.15608C0.313641 4.0062 0.784716 2.9122 1.59812 2.0988C2.41153 1.28539 3.50552 0.814312 4.65541 0.782321C5.8053 0.75033 6.92379 1.15985 7.78117 1.92678C8.63854 2.6937 9.16971 3.75981 9.26558 4.90614C9.36146 6.05247 9.01476 7.192 8.29669 8.09069L11.734 11.5274C11.7831 11.5731 11.8225 11.6283 11.8499 11.6897C11.8772 11.751 11.8919 11.8172 11.8931 11.8843C11.8943 11.9515 11.8819 12.0182 11.8568 12.0804C11.8316 12.1427 11.7942 12.1992 11.7467 12.2467C11.6992 12.2942 11.6427 12.3316 11.5804 12.3568C11.5182 12.3819 11.4515 12.3943 11.3843 12.3931C11.3172 12.3919 11.251 12.3772 11.1897 12.3499C11.1283 12.3225 11.0731 12.2831 11.0274 12.234L7.59002 8.79736ZM2.30669 7.75602C1.81738 7.26667 1.48412 6.64324 1.34903 5.96454C1.21393 5.28583 1.28307 4.58231 1.54769 3.94289C1.81232 3.30347 2.26056 2.75684 2.83576 2.37209C3.41096 1.98734 4.08731 1.78175 4.77933 1.78128C5.47135 1.78081 6.14798 1.9855 6.7237 2.36948C7.29942 2.75345 7.74839 3.29947 8.01388 3.93854C8.27936 4.57761 8.34945 5.28103 8.21526 5.95992C8.08108 6.6388 7.74867 7.26268 7.26002 7.75269L7.25669 7.75602L7.25335 7.75869C6.59675 8.41377 5.70697 8.78144 4.77947 8.78094C3.85196 8.78044 2.96258 8.41181 2.30669 7.75602Z" fill="#DEE2E6"/>
</svg>
